<mxfile host="app.diagrams.net" agent="Mozilla/5.0 (Windows NT 10.0; Win64; x64) AppleWebKit/537.36 (KHTML, like Gecko) Chrome/129.0.0.0 Safari/537.36" version="24.7.17">
  <diagram name="Page-1" id="2YBvvXClWsGukQMizWep">
    <mxGraphModel dx="794" dy="446" grid="1" gridSize="10" guides="1" tooltips="1" connect="1" arrows="1" fold="1" page="1" pageScale="1" pageWidth="850" pageHeight="1100" math="0" shadow="0">
      <root>
        <mxCell id="0" />
        <mxCell id="1" parent="0" />
        <mxCell id="HWQaElx85lBoZ3c3xv75-5" value="" style="group" parent="1" vertex="1" connectable="0">
          <mxGeometry x="70" y="45" width="80" height="295" as="geometry" />
        </mxCell>
        <mxCell id="HWQaElx85lBoZ3c3xv75-3" value="" style="shape=umlLifeline;perimeter=lifelinePerimeter;whiteSpace=wrap;html=1;container=1;dropTarget=0;collapsible=0;recursiveResize=0;outlineConnect=0;portConstraint=eastwest;newEdgeStyle={&quot;curved&quot;:0,&quot;rounded&quot;:0};participant=umlActor;" parent="HWQaElx85lBoZ3c3xv75-5" vertex="1">
          <mxGeometry x="26.666666666666664" y="-9.833333333333337" width="26.666666666666664" height="304.8333333333334" as="geometry" />
        </mxCell>
        <mxCell id="HWQaElx85lBoZ3c3xv75-4" value="Student" style="text;html=1;align=center;verticalAlign=middle;resizable=0;points=[];autosize=1;strokeColor=none;fillColor=none;" parent="HWQaElx85lBoZ3c3xv75-5" vertex="1">
          <mxGeometry x="10" y="38.06134408602152" width="60" height="30" as="geometry" />
        </mxCell>
        <mxCell id="HWQaElx85lBoZ3c3xv75-12" value="" style="html=1;points=[[0,0,0,0,5],[0,1,0,0,-5],[1,0,0,0,5],[1,1,0,0,-5]];perimeter=orthogonalPerimeter;outlineConnect=0;targetShapes=umlLifeline;portConstraint=eastwest;newEdgeStyle={&quot;curved&quot;:0,&quot;rounded&quot;:0};" parent="HWQaElx85lBoZ3c3xv75-5" vertex="1">
          <mxGeometry x="35" y="85" width="10" height="185" as="geometry" />
        </mxCell>
        <mxCell id="HWQaElx85lBoZ3c3xv75-6" value="&lt;b&gt;&amp;nbsp; &amp;nbsp;Frontend&lt;/b&gt;" style="shape=umlLifeline;perimeter=lifelinePerimeter;whiteSpace=wrap;html=1;container=1;dropTarget=0;collapsible=0;recursiveResize=0;outlineConnect=0;portConstraint=eastwest;newEdgeStyle={&quot;curved&quot;:0,&quot;rounded&quot;:0};participant=umlBoundary;size=70;" parent="1" vertex="1">
          <mxGeometry x="230" y="40" width="80" height="300" as="geometry" />
        </mxCell>
        <mxCell id="HWQaElx85lBoZ3c3xv75-13" value="" style="html=1;points=[[0,0,0,0,5],[0,1,0,0,-5],[1,0,0,0,5],[1,1,0,0,-5]];perimeter=orthogonalPerimeter;outlineConnect=0;targetShapes=umlLifeline;portConstraint=eastwest;newEdgeStyle={&quot;curved&quot;:0,&quot;rounded&quot;:0};" parent="HWQaElx85lBoZ3c3xv75-6" vertex="1">
          <mxGeometry x="35" y="84" width="10" height="176" as="geometry" />
        </mxCell>
        <mxCell id="HWQaElx85lBoZ3c3xv75-9" value="&lt;b&gt;TestController&lt;/b&gt;" style="shape=umlLifeline;perimeter=lifelinePerimeter;whiteSpace=wrap;html=1;container=1;dropTarget=0;collapsible=0;recursiveResize=0;outlineConnect=0;portConstraint=eastwest;newEdgeStyle={&quot;curved&quot;:0,&quot;rounded&quot;:0};participant=umlControl;size=70;" parent="1" vertex="1">
          <mxGeometry x="397.5" y="40" width="65" height="300" as="geometry" />
        </mxCell>
        <mxCell id="HWQaElx85lBoZ3c3xv75-15" value="" style="html=1;points=[[0,0,0,0,5],[0,1,0,0,-5],[1,0,0,0,5],[1,1,0,0,-5]];perimeter=orthogonalPerimeter;outlineConnect=0;targetShapes=umlLifeline;portConstraint=eastwest;newEdgeStyle={&quot;curved&quot;:0,&quot;rounded&quot;:0};" parent="HWQaElx85lBoZ3c3xv75-9" vertex="1">
          <mxGeometry x="27.5" y="115" width="10" height="120" as="geometry" />
        </mxCell>
        <mxCell id="HWQaElx85lBoZ3c3xv75-10" value="&lt;b&gt;TestService&lt;/b&gt;" style="shape=umlLifeline;perimeter=lifelinePerimeter;whiteSpace=wrap;html=1;container=1;dropTarget=0;collapsible=0;recursiveResize=0;outlineConnect=0;portConstraint=eastwest;newEdgeStyle={&quot;curved&quot;:0,&quot;rounded&quot;:0};participant=umlControl;size=70;" parent="1" vertex="1">
          <mxGeometry x="550" y="40" width="70" height="300" as="geometry" />
        </mxCell>
        <mxCell id="HWQaElx85lBoZ3c3xv75-17" value="" style="html=1;points=[[0,0,0,0,5],[0,1,0,0,-5],[1,0,0,0,5],[1,1,0,0,-5]];perimeter=orthogonalPerimeter;outlineConnect=0;targetShapes=umlLifeline;portConstraint=eastwest;newEdgeStyle={&quot;curved&quot;:0,&quot;rounded&quot;:0};" parent="HWQaElx85lBoZ3c3xv75-10" vertex="1">
          <mxGeometry x="30" y="130" width="10" height="90" as="geometry" />
        </mxCell>
        <mxCell id="HWQaElx85lBoZ3c3xv75-11" value="Database" style="shape=umlLifeline;perimeter=lifelinePerimeter;whiteSpace=wrap;html=1;container=1;dropTarget=0;collapsible=0;recursiveResize=0;outlineConnect=0;portConstraint=eastwest;newEdgeStyle={&quot;curved&quot;:0,&quot;rounded&quot;:0};" parent="1" vertex="1">
          <mxGeometry x="680" y="40" width="100" height="300" as="geometry" />
        </mxCell>
        <mxCell id="HWQaElx85lBoZ3c3xv75-19" value="" style="html=1;points=[[0,0,0,0,5],[0,1,0,0,-5],[1,0,0,0,5],[1,1,0,0,-5]];perimeter=orthogonalPerimeter;outlineConnect=0;targetShapes=umlLifeline;portConstraint=eastwest;newEdgeStyle={&quot;curved&quot;:0,&quot;rounded&quot;:0};" parent="HWQaElx85lBoZ3c3xv75-11" vertex="1">
          <mxGeometry x="45" y="140" width="10" height="50" as="geometry" />
        </mxCell>
        <mxCell id="HWQaElx85lBoZ3c3xv75-14" value="View All Tests" style="html=1;verticalAlign=bottom;endArrow=block;curved=0;rounded=0;" parent="1" target="HWQaElx85lBoZ3c3xv75-6" edge="1">
          <mxGeometry width="80" relative="1" as="geometry">
            <mxPoint x="114.99666666666667" y="159.1683333333333" as="sourcePoint" />
            <mxPoint x="299.5" y="159.1683333333333" as="targetPoint" />
          </mxGeometry>
        </mxCell>
        <mxCell id="HWQaElx85lBoZ3c3xv75-16" value="GET /tests" style="html=1;verticalAlign=bottom;endArrow=block;curved=0;rounded=0;" parent="1" edge="1">
          <mxGeometry width="80" relative="1" as="geometry">
            <mxPoint x="269.5" y="170" as="sourcePoint" />
            <mxPoint x="425" y="170" as="targetPoint" />
          </mxGeometry>
        </mxCell>
        <mxCell id="HWQaElx85lBoZ3c3xv75-18" value="getAllTest()" style="html=1;verticalAlign=bottom;endArrow=block;curved=0;rounded=0;entryX=0;entryY=0;entryDx=0;entryDy=5;entryPerimeter=0;" parent="1" source="HWQaElx85lBoZ3c3xv75-15" target="HWQaElx85lBoZ3c3xv75-17" edge="1">
          <mxGeometry width="80" relative="1" as="geometry">
            <mxPoint x="450" y="184" as="sourcePoint" />
            <mxPoint x="569.5" y="184" as="targetPoint" />
          </mxGeometry>
        </mxCell>
        <mxCell id="HWQaElx85lBoZ3c3xv75-20" value="Query for all tests" style="html=1;verticalAlign=bottom;endArrow=block;curved=0;rounded=0;" parent="1" source="HWQaElx85lBoZ3c3xv75-10" target="HWQaElx85lBoZ3c3xv75-11" edge="1">
          <mxGeometry width="80" relative="1" as="geometry">
            <mxPoint x="610" y="160" as="sourcePoint" />
            <mxPoint x="690" y="160" as="targetPoint" />
          </mxGeometry>
        </mxCell>
        <mxCell id="HWQaElx85lBoZ3c3xv75-21" value="List of Tests" style="html=1;verticalAlign=bottom;endArrow=open;dashed=1;endSize=8;curved=0;rounded=0;exitX=0;exitY=1;exitDx=0;exitDy=-5;exitPerimeter=0;" parent="1" source="HWQaElx85lBoZ3c3xv75-19" target="HWQaElx85lBoZ3c3xv75-10" edge="1">
          <mxGeometry relative="1" as="geometry">
            <mxPoint x="719.5" y="226" as="sourcePoint" />
            <mxPoint x="569.5" y="226" as="targetPoint" />
          </mxGeometry>
        </mxCell>
        <mxCell id="HWQaElx85lBoZ3c3xv75-22" value="List of Tests" style="html=1;verticalAlign=bottom;endArrow=open;dashed=1;endSize=8;curved=0;rounded=0;" parent="1" edge="1">
          <mxGeometry relative="1" as="geometry">
            <mxPoint x="580" y="236" as="sourcePoint" />
            <mxPoint x="429.5" y="236" as="targetPoint" />
          </mxGeometry>
        </mxCell>
        <mxCell id="HWQaElx85lBoZ3c3xv75-23" value="List of Tests" style="html=1;verticalAlign=bottom;endArrow=open;dashed=1;endSize=8;curved=0;rounded=0;" parent="1" edge="1">
          <mxGeometry relative="1" as="geometry">
            <mxPoint x="429.5" y="247" as="sourcePoint" />
            <mxPoint x="269.5" y="247" as="targetPoint" />
          </mxGeometry>
        </mxCell>
        <mxCell id="HWQaElx85lBoZ3c3xv75-24" value="Display All Tests" style="html=1;verticalAlign=bottom;endArrow=open;dashed=1;endSize=8;curved=0;rounded=0;" parent="1" edge="1">
          <mxGeometry relative="1" as="geometry">
            <mxPoint x="265" y="270" as="sourcePoint" />
            <mxPoint x="115" y="270" as="targetPoint" />
          </mxGeometry>
        </mxCell>
      </root>
    </mxGraphModel>
  </diagram>
</mxfile>
